<svg width="44" height="44" viewBox="0 0 44 44" fill="none" xmlns="http://www.w3.org/2000/svg">
<path d="M7.2207 22.3869C7.2207 15.9193 7.2207 12.6841 9.22973 10.675C11.2388 8.66602 14.4725 8.66602 20.9416 8.66602C27.4092 8.66602 30.6444 8.66602 32.6534 10.675C34.6625 12.6841 34.6625 15.9179 34.6625 22.3869C34.6625 28.8545 34.6625 32.0897 32.6534 34.0987C30.6444 36.1078 27.4106 36.1078 20.9416 36.1078C14.474 36.1078 11.2388 36.1078 9.22973 34.0987C7.2207 32.0897 7.2207 28.8559 7.2207 22.3869Z" stroke="white" stroke-width="2.16645" stroke-linejoin="round"/>
<path d="M27.4401 22.3871C27.4401 24.1108 26.7554 25.7639 25.5365 26.9828C24.3176 28.2017 22.6645 28.8864 20.9408 28.8864C19.217 28.8864 17.5639 28.2017 16.345 26.9828C15.1262 25.7639 14.4414 24.1108 14.4414 22.3871C14.4414 20.6633 15.1262 19.0102 16.345 17.7913C17.5639 16.5724 19.217 15.8877 20.9408 15.8877C22.6645 15.8877 24.3176 16.5724 25.5365 17.7913C26.7554 19.0102 27.4401 20.6633 27.4401 22.3871Z" stroke="white" stroke-width="2.16645"/>
<path d="M28.8953 14.4434H28.8809" stroke="white" stroke-width="2.88861" stroke-linecap="round" stroke-linejoin="round"/>
</svg>
