<svg width="44" height="44" viewBox="0 0 44 44" fill="none" xmlns="http://www.w3.org/2000/svg">
<path fill-rule="evenodd" clip-rule="evenodd" d="M23.8727 19.2891V19.2225L23.8301 19.2891H23.8727Z" fill="white"/>
<path d="M23.8727 35.7467V24.9978C23.8727 24.4224 23.9153 23.847 24.0858 23.4368C24.5467 22.2887 25.5989 21.0979 27.3677 21.0979C29.6827 21.0979 30.607 22.8614 30.607 25.4507V35.7467H37.003V24.7075C37.003 18.7936 33.849 16.0445 29.64 16.0445C26.2462 16.0445 24.7252 17.9092 23.8727 19.2225V19.2891H23.8301L23.8727 19.2225V16.5H17.4794C17.5593 18.3061 17.4794 35.7467 17.4794 35.7467H23.8727Z" fill="white"/>
<path d="M13.995 35.7467V16.5H7.59898V35.7467H13.995Z" fill="white"/>
<path d="M10.7983 13.8708C13.028 13.8708 14.4159 12.395 14.4159 10.5462C14.3759 8.65752 13.0307 7.22168 10.8409 7.22168C8.65121 7.22168 7.2207 8.66018 7.2207 10.5462C7.2207 12.395 8.60859 13.8708 10.7557 13.8708H10.7983Z" fill="white"/>
</svg>
